<mxfile host="Electron" agent="Mozilla/5.0 (Windows NT 10.0; Win64; x64) AppleWebKit/537.36 (KHTML, like Gecko) draw.io/28.1.2 Chrome/138.0.7204.243 Electron/37.4.0 Safari/537.36" version="28.1.2">
  <diagram name="Página-1" id="qNn-7I8NFrdjc1Kz7iOX">
    <mxGraphModel dx="3043" dy="2004" grid="1" gridSize="10" guides="1" tooltips="1" connect="1" arrows="1" fold="1" page="1" pageScale="1" pageWidth="827" pageHeight="1169" math="0" shadow="0">
      <root>
        <mxCell id="0" />
        <mxCell id="1" parent="0" />
        <mxCell id="9vfIiYDkvgnKDdM_YgGi-7" style="edgeStyle=orthogonalEdgeStyle;rounded=0;orthogonalLoop=1;jettySize=auto;html=1;" parent="1" source="tlmMbIlWssG65KgdVrQm-13" edge="1">
          <mxGeometry relative="1" as="geometry">
            <mxPoint x="283" y="-422.5" as="targetPoint" />
          </mxGeometry>
        </mxCell>
        <mxCell id="9vfIiYDkvgnKDdM_YgGi-68" style="edgeStyle=orthogonalEdgeStyle;rounded=0;orthogonalLoop=1;jettySize=auto;html=1;entryX=0.5;entryY=1;entryDx=0;entryDy=0;" parent="1" source="tlmMbIlWssG65KgdVrQm-13" target="9vfIiYDkvgnKDdM_YgGi-63" edge="1">
          <mxGeometry relative="1" as="geometry" />
        </mxCell>
        <mxCell id="tlmMbIlWssG65KgdVrQm-13" value="Acessar tela principal" style="rounded=1;whiteSpace=wrap;html=1;" parent="1" vertex="1">
          <mxGeometry x="103" y="-450" width="120" height="60" as="geometry" />
        </mxCell>
        <mxCell id="tlmMbIlWssG65KgdVrQm-28" style="edgeStyle=orthogonalEdgeStyle;rounded=0;orthogonalLoop=1;jettySize=auto;html=1;fillColor=#60a917;strokeColor=#2D7600;" parent="1" source="tlmMbIlWssG65KgdVrQm-14" target="tlmMbIlWssG65KgdVrQm-18" edge="1">
          <mxGeometry relative="1" as="geometry" />
        </mxCell>
        <mxCell id="tlmMbIlWssG65KgdVrQm-14" value="Selecionar criar uma nova denuncia" style="rounded=1;whiteSpace=wrap;html=1;" parent="1" vertex="1">
          <mxGeometry x="278" y="-100" width="120" height="60" as="geometry" />
        </mxCell>
        <mxCell id="tlmMbIlWssG65KgdVrQm-16" style="edgeStyle=orthogonalEdgeStyle;rounded=0;orthogonalLoop=1;jettySize=auto;html=1;exitX=1;exitY=0;exitDx=0;exitDy=0;entryX=0.625;entryY=0.25;entryDx=0;entryDy=0;entryPerimeter=0;" parent="1" edge="1">
          <mxGeometry relative="1" as="geometry">
            <mxPoint x="513" y="-80" as="sourcePoint" />
            <mxPoint x="503" y="-80" as="targetPoint" />
          </mxGeometry>
        </mxCell>
        <mxCell id="tlmMbIlWssG65KgdVrQm-29" style="edgeStyle=orthogonalEdgeStyle;rounded=0;orthogonalLoop=1;jettySize=auto;html=1;" parent="1" source="tlmMbIlWssG65KgdVrQm-18" target="tlmMbIlWssG65KgdVrQm-19" edge="1">
          <mxGeometry relative="1" as="geometry" />
        </mxCell>
        <mxCell id="tlmMbIlWssG65KgdVrQm-18" value="Selecionar tipo da denuncia" style="rounded=1;whiteSpace=wrap;html=1;" parent="1" vertex="1">
          <mxGeometry x="463" y="-90" width="120" height="60" as="geometry" />
        </mxCell>
        <mxCell id="tlmMbIlWssG65KgdVrQm-30" style="edgeStyle=orthogonalEdgeStyle;rounded=0;orthogonalLoop=1;jettySize=auto;html=1;entryX=0;entryY=0.5;entryDx=0;entryDy=0;fillColor=#60a917;strokeColor=#2D7600;" parent="1" source="tlmMbIlWssG65KgdVrQm-19" target="tlmMbIlWssG65KgdVrQm-20" edge="1">
          <mxGeometry relative="1" as="geometry" />
        </mxCell>
        <mxCell id="9vfIiYDkvgnKDdM_YgGi-76" value="" style="edgeStyle=orthogonalEdgeStyle;rounded=0;orthogonalLoop=1;jettySize=auto;html=1;fillColor=#60a917;strokeColor=#2D7600;" parent="1" source="tlmMbIlWssG65KgdVrQm-19" target="tlmMbIlWssG65KgdVrQm-18" edge="1">
          <mxGeometry relative="1" as="geometry" />
        </mxCell>
        <mxCell id="tlmMbIlWssG65KgdVrQm-19" value="Fornecer a descrção e localização da denuncia" style="rounded=1;whiteSpace=wrap;html=1;" parent="1" vertex="1">
          <mxGeometry x="633" y="-90" width="120" height="60" as="geometry" />
        </mxCell>
        <mxCell id="tlmMbIlWssG65KgdVrQm-31" style="edgeStyle=orthogonalEdgeStyle;rounded=0;orthogonalLoop=1;jettySize=auto;html=1;fillColor=#60a917;strokeColor=#2D7600;" parent="1" source="tlmMbIlWssG65KgdVrQm-20" target="tlmMbIlWssG65KgdVrQm-21" edge="1">
          <mxGeometry relative="1" as="geometry">
            <Array as="points">
              <mxPoint x="833" y="-160" />
            </Array>
          </mxGeometry>
        </mxCell>
        <mxCell id="9vfIiYDkvgnKDdM_YgGi-48" value="Anonima" style="edgeLabel;html=1;align=center;verticalAlign=middle;resizable=0;points=[];" parent="tlmMbIlWssG65KgdVrQm-31" vertex="1" connectable="0">
          <mxGeometry x="0.4671" y="2" relative="1" as="geometry">
            <mxPoint x="-11" y="2" as="offset" />
          </mxGeometry>
        </mxCell>
        <mxCell id="tlmMbIlWssG65KgdVrQm-33" style="edgeStyle=orthogonalEdgeStyle;rounded=0;orthogonalLoop=1;jettySize=auto;html=1;entryX=0;entryY=0.75;entryDx=0;entryDy=0;fillColor=#60a917;strokeColor=#2D7600;" parent="1" source="tlmMbIlWssG65KgdVrQm-20" target="tlmMbIlWssG65KgdVrQm-22" edge="1">
          <mxGeometry relative="1" as="geometry">
            <Array as="points">
              <mxPoint x="833" y="25" />
            </Array>
          </mxGeometry>
        </mxCell>
        <mxCell id="9vfIiYDkvgnKDdM_YgGi-47" value="Identificada" style="edgeLabel;html=1;align=center;verticalAlign=middle;resizable=0;points=[];" parent="tlmMbIlWssG65KgdVrQm-33" vertex="1" connectable="0">
          <mxGeometry x="0.0499" y="2" relative="1" as="geometry">
            <mxPoint as="offset" />
          </mxGeometry>
        </mxCell>
        <mxCell id="tlmMbIlWssG65KgdVrQm-20" value="Denuncia anomima ou identificada?" style="rhombus;whiteSpace=wrap;html=1;" parent="1" vertex="1">
          <mxGeometry x="793" y="-100" width="80" height="80" as="geometry" />
        </mxCell>
        <mxCell id="tlmMbIlWssG65KgdVrQm-21" value="Sem dados do usuario" style="rounded=1;whiteSpace=wrap;html=1;" parent="1" vertex="1">
          <mxGeometry x="883" y="-190" width="120" height="60" as="geometry" />
        </mxCell>
        <mxCell id="tlmMbIlWssG65KgdVrQm-22" value="Com os dados do usuario" style="rounded=1;whiteSpace=wrap;html=1;" parent="1" vertex="1">
          <mxGeometry x="893" y="-20" width="120" height="60" as="geometry" />
        </mxCell>
        <mxCell id="9vfIiYDkvgnKDdM_YgGi-29" style="edgeStyle=orthogonalEdgeStyle;rounded=0;orthogonalLoop=1;jettySize=auto;html=1;fillColor=#60a917;strokeColor=#2D7600;" parent="1" source="tlmMbIlWssG65KgdVrQm-23" target="tlmMbIlWssG65KgdVrQm-13" edge="1">
          <mxGeometry relative="1" as="geometry" />
        </mxCell>
        <mxCell id="tlmMbIlWssG65KgdVrQm-23" value="Enviar denuncia" style="rounded=1;whiteSpace=wrap;html=1;" parent="1" vertex="1">
          <mxGeometry x="1053" y="-100" width="120" height="60" as="geometry" />
        </mxCell>
        <mxCell id="tlmMbIlWssG65KgdVrQm-34" style="edgeStyle=orthogonalEdgeStyle;rounded=0;orthogonalLoop=1;jettySize=auto;html=1;entryX=0.623;entryY=1.06;entryDx=0;entryDy=0;entryPerimeter=0;fillColor=#60a917;strokeColor=#2D7600;" parent="1" source="tlmMbIlWssG65KgdVrQm-22" target="tlmMbIlWssG65KgdVrQm-23" edge="1">
          <mxGeometry relative="1" as="geometry" />
        </mxCell>
        <mxCell id="tlmMbIlWssG65KgdVrQm-35" style="edgeStyle=orthogonalEdgeStyle;rounded=0;orthogonalLoop=1;jettySize=auto;html=1;entryX=0.583;entryY=0.167;entryDx=0;entryDy=0;entryPerimeter=0;fillColor=#60a917;strokeColor=#2D7600;" parent="1" source="tlmMbIlWssG65KgdVrQm-21" target="tlmMbIlWssG65KgdVrQm-23" edge="1">
          <mxGeometry relative="1" as="geometry" />
        </mxCell>
        <mxCell id="tlmMbIlWssG65KgdVrQm-48" style="edgeStyle=orthogonalEdgeStyle;rounded=0;orthogonalLoop=1;jettySize=auto;html=1;" parent="1" source="tlmMbIlWssG65KgdVrQm-41" target="tlmMbIlWssG65KgdVrQm-42" edge="1">
          <mxGeometry relative="1" as="geometry" />
        </mxCell>
        <mxCell id="tlmMbIlWssG65KgdVrQm-41" value="Acesar pagina de cadastro" style="rounded=1;whiteSpace=wrap;html=1;" parent="1" vertex="1">
          <mxGeometry x="-587" y="50" width="120" height="60" as="geometry" />
        </mxCell>
        <mxCell id="tlmMbIlWssG65KgdVrQm-49" style="edgeStyle=orthogonalEdgeStyle;rounded=0;orthogonalLoop=1;jettySize=auto;html=1;" parent="1" source="tlmMbIlWssG65KgdVrQm-42" target="tlmMbIlWssG65KgdVrQm-43" edge="1">
          <mxGeometry relative="1" as="geometry" />
        </mxCell>
        <mxCell id="tlmMbIlWssG65KgdVrQm-42" value="Prencher dados (Cpf, nome completo, endereço, numero, email, senha)" style="rounded=1;whiteSpace=wrap;html=1;" parent="1" vertex="1">
          <mxGeometry x="-407" y="50" width="120" height="60" as="geometry" />
        </mxCell>
        <mxCell id="tlmMbIlWssG65KgdVrQm-50" style="edgeStyle=orthogonalEdgeStyle;rounded=0;orthogonalLoop=1;jettySize=auto;html=1;" parent="1" source="tlmMbIlWssG65KgdVrQm-43" target="tlmMbIlWssG65KgdVrQm-45" edge="1">
          <mxGeometry relative="1" as="geometry">
            <Array as="points">
              <mxPoint x="-167" y="130" />
            </Array>
          </mxGeometry>
        </mxCell>
        <mxCell id="tlmMbIlWssG65KgdVrQm-57" value="Não" style="edgeLabel;html=1;align=center;verticalAlign=middle;resizable=0;points=[];" parent="tlmMbIlWssG65KgdVrQm-50" vertex="1" connectable="0">
          <mxGeometry x="0.4212" y="-3" relative="1" as="geometry">
            <mxPoint as="offset" />
          </mxGeometry>
        </mxCell>
        <mxCell id="tlmMbIlWssG65KgdVrQm-51" style="edgeStyle=orthogonalEdgeStyle;rounded=0;orthogonalLoop=1;jettySize=auto;html=1;" parent="1" source="tlmMbIlWssG65KgdVrQm-43" target="tlmMbIlWssG65KgdVrQm-44" edge="1">
          <mxGeometry relative="1" as="geometry">
            <Array as="points">
              <mxPoint x="-167" />
            </Array>
          </mxGeometry>
        </mxCell>
        <mxCell id="tlmMbIlWssG65KgdVrQm-59" value="Sim" style="edgeLabel;html=1;align=center;verticalAlign=middle;resizable=0;points=[];" parent="tlmMbIlWssG65KgdVrQm-51" vertex="1" connectable="0">
          <mxGeometry x="0.2332" y="3" relative="1" as="geometry">
            <mxPoint as="offset" />
          </mxGeometry>
        </mxCell>
        <mxCell id="tlmMbIlWssG65KgdVrQm-43" value="Todos os dados são validos?" style="rhombus;whiteSpace=wrap;html=1;" parent="1" vertex="1">
          <mxGeometry x="-207" y="40" width="80" height="80" as="geometry" />
        </mxCell>
        <mxCell id="9vfIiYDkvgnKDdM_YgGi-78" style="edgeStyle=orthogonalEdgeStyle;rounded=0;orthogonalLoop=1;jettySize=auto;html=1;" parent="1" source="tlmMbIlWssG65KgdVrQm-44" target="tlmMbIlWssG65KgdVrQm-64" edge="1">
          <mxGeometry relative="1" as="geometry" />
        </mxCell>
        <mxCell id="tlmMbIlWssG65KgdVrQm-44" value="Realizar login" style="rounded=1;whiteSpace=wrap;html=1;" parent="1" vertex="1">
          <mxGeometry x="-37" y="-90" width="120" height="60" as="geometry" />
        </mxCell>
        <mxCell id="9vfIiYDkvgnKDdM_YgGi-45" style="edgeStyle=orthogonalEdgeStyle;rounded=0;orthogonalLoop=1;jettySize=auto;html=1;entryX=0.25;entryY=1;entryDx=0;entryDy=0;" parent="1" source="tlmMbIlWssG65KgdVrQm-45" target="tlmMbIlWssG65KgdVrQm-42" edge="1">
          <mxGeometry relative="1" as="geometry">
            <Array as="points">
              <mxPoint x="33" y="200" />
              <mxPoint x="-377" y="200" />
            </Array>
          </mxGeometry>
        </mxCell>
        <mxCell id="tlmMbIlWssG65KgdVrQm-45" value="Exibe um erro informando que algum dado não é valido" style="rounded=1;whiteSpace=wrap;html=1;" parent="1" vertex="1">
          <mxGeometry x="-27" y="100" width="120" height="60" as="geometry" />
        </mxCell>
        <mxCell id="tlmMbIlWssG65KgdVrQm-71" style="edgeStyle=orthogonalEdgeStyle;rounded=0;orthogonalLoop=1;jettySize=auto;html=1;" parent="1" source="tlmMbIlWssG65KgdVrQm-61" target="tlmMbIlWssG65KgdVrQm-64" edge="1">
          <mxGeometry relative="1" as="geometry" />
        </mxCell>
        <mxCell id="tlmMbIlWssG65KgdVrQm-61" value="Acesar pagina de login" style="rounded=1;whiteSpace=wrap;html=1;" parent="1" vertex="1">
          <mxGeometry x="-597" y="-350" width="120" height="60" as="geometry" />
        </mxCell>
        <mxCell id="tlmMbIlWssG65KgdVrQm-70" style="edgeStyle=orthogonalEdgeStyle;rounded=0;orthogonalLoop=1;jettySize=auto;html=1;" parent="1" source="tlmMbIlWssG65KgdVrQm-63" target="tlmMbIlWssG65KgdVrQm-61" edge="1">
          <mxGeometry relative="1" as="geometry" />
        </mxCell>
        <mxCell id="tlmMbIlWssG65KgdVrQm-63" value="Inicio" style="ellipse;whiteSpace=wrap;html=1;" parent="1" vertex="1">
          <mxGeometry x="-757" y="-360" width="80" height="80" as="geometry" />
        </mxCell>
        <mxCell id="tlmMbIlWssG65KgdVrQm-72" style="edgeStyle=orthogonalEdgeStyle;rounded=0;orthogonalLoop=1;jettySize=auto;html=1;entryX=0;entryY=0.5;entryDx=0;entryDy=0;" parent="1" source="tlmMbIlWssG65KgdVrQm-64" target="tlmMbIlWssG65KgdVrQm-65" edge="1">
          <mxGeometry relative="1" as="geometry" />
        </mxCell>
        <mxCell id="tlmMbIlWssG65KgdVrQm-64" value="Informar senha e email" style="rounded=1;whiteSpace=wrap;html=1;" parent="1" vertex="1">
          <mxGeometry x="-417" y="-350" width="120" height="60" as="geometry" />
        </mxCell>
        <mxCell id="tlmMbIlWssG65KgdVrQm-73" style="edgeStyle=orthogonalEdgeStyle;rounded=0;orthogonalLoop=1;jettySize=auto;html=1;" parent="1" source="tlmMbIlWssG65KgdVrQm-65" target="tlmMbIlWssG65KgdVrQm-68" edge="1">
          <mxGeometry relative="1" as="geometry">
            <Array as="points">
              <mxPoint x="-207" y="-420" />
            </Array>
          </mxGeometry>
        </mxCell>
        <mxCell id="tlmMbIlWssG65KgdVrQm-77" value="Sim" style="edgeLabel;html=1;align=center;verticalAlign=middle;resizable=0;points=[];" parent="tlmMbIlWssG65KgdVrQm-73" vertex="1" connectable="0">
          <mxGeometry x="0.4098" y="-1" relative="1" as="geometry">
            <mxPoint as="offset" />
          </mxGeometry>
        </mxCell>
        <mxCell id="tlmMbIlWssG65KgdVrQm-75" style="edgeStyle=orthogonalEdgeStyle;rounded=0;orthogonalLoop=1;jettySize=auto;html=1;" parent="1" source="tlmMbIlWssG65KgdVrQm-65" target="tlmMbIlWssG65KgdVrQm-66" edge="1">
          <mxGeometry relative="1" as="geometry">
            <Array as="points">
              <mxPoint x="-107" y="-340" />
            </Array>
          </mxGeometry>
        </mxCell>
        <mxCell id="tlmMbIlWssG65KgdVrQm-78" value="Não" style="edgeLabel;html=1;align=center;verticalAlign=middle;resizable=0;points=[];" parent="tlmMbIlWssG65KgdVrQm-75" vertex="1" connectable="0">
          <mxGeometry x="-0.3373" y="-1" relative="1" as="geometry">
            <mxPoint as="offset" />
          </mxGeometry>
        </mxCell>
        <mxCell id="tlmMbIlWssG65KgdVrQm-65" value="Possui cadastro ativo?" style="rhombus;whiteSpace=wrap;html=1;" parent="1" vertex="1">
          <mxGeometry x="-247" y="-360" width="80" height="80" as="geometry" />
        </mxCell>
        <mxCell id="9vfIiYDkvgnKDdM_YgGi-2" style="edgeStyle=orthogonalEdgeStyle;rounded=0;orthogonalLoop=1;jettySize=auto;html=1;" parent="1" source="tlmMbIlWssG65KgdVrQm-66" target="tlmMbIlWssG65KgdVrQm-41" edge="1">
          <mxGeometry relative="1" as="geometry" />
        </mxCell>
        <mxCell id="tlmMbIlWssG65KgdVrQm-66" value="Realizar cadastro" style="rounded=1;whiteSpace=wrap;html=1;" parent="1" vertex="1">
          <mxGeometry x="-327" y="-230" width="120" height="60" as="geometry" />
        </mxCell>
        <mxCell id="9vfIiYDkvgnKDdM_YgGi-1" style="edgeStyle=orthogonalEdgeStyle;rounded=0;orthogonalLoop=1;jettySize=auto;html=1;" parent="1" source="tlmMbIlWssG65KgdVrQm-68" target="tlmMbIlWssG65KgdVrQm-13" edge="1">
          <mxGeometry relative="1" as="geometry">
            <mxPoint x="313" y="190" as="targetPoint" />
          </mxGeometry>
        </mxCell>
        <mxCell id="tlmMbIlWssG65KgdVrQm-68" value="Realizar o login" style="rounded=1;whiteSpace=wrap;html=1;" parent="1" vertex="1">
          <mxGeometry x="-67" y="-450" width="120" height="60" as="geometry" />
        </mxCell>
        <mxCell id="9vfIiYDkvgnKDdM_YgGi-4" value="&lt;font style=&quot;color: rgb(255, 255, 255);&quot;&gt;Usuario&lt;/font&gt;" style="rounded=0;whiteSpace=wrap;html=1;fillColor=#60a917;fontColor=#ffffff;strokeColor=#2D7600;" parent="1" vertex="1">
          <mxGeometry x="-1120" y="-970" width="2370" height="40" as="geometry" />
        </mxCell>
        <mxCell id="9vfIiYDkvgnKDdM_YgGi-5" value="&lt;font style=&quot;color: rgb(255, 255, 255);&quot;&gt;Administrador&lt;/font&gt;" style="rounded=0;whiteSpace=wrap;html=1;fillColor=#60a917;fontColor=#ffffff;strokeColor=#2D7600;fontStyle=1" parent="1" vertex="1">
          <mxGeometry x="-1192" y="410" width="2370" height="40" as="geometry" />
        </mxCell>
        <mxCell id="9vfIiYDkvgnKDdM_YgGi-12" style="edgeStyle=orthogonalEdgeStyle;rounded=0;orthogonalLoop=1;jettySize=auto;html=1;" parent="1" target="tlmMbIlWssG65KgdVrQm-14" edge="1">
          <mxGeometry relative="1" as="geometry">
            <mxPoint x="338" y="-370" as="sourcePoint" />
          </mxGeometry>
        </mxCell>
        <mxCell id="9vfIiYDkvgnKDdM_YgGi-13" value="Realizar denuncia" style="edgeLabel;html=1;align=center;verticalAlign=middle;resizable=0;points=[];labelBackgroundColor=#009900;fontSize=13;fontStyle=1;labelBorderColor=default;" parent="9vfIiYDkvgnKDdM_YgGi-12" vertex="1" connectable="0">
          <mxGeometry x="0.4646" y="1" relative="1" as="geometry">
            <mxPoint as="offset" />
          </mxGeometry>
        </mxCell>
        <mxCell id="9vfIiYDkvgnKDdM_YgGi-15" style="edgeStyle=orthogonalEdgeStyle;rounded=0;orthogonalLoop=1;jettySize=auto;html=1;entryX=0;entryY=0.5;entryDx=0;entryDy=0;exitX=1;exitY=0.5;exitDx=0;exitDy=0;fillColor=#e1d5e7;strokeColor=#9673a6;" parent="1" target="9vfIiYDkvgnKDdM_YgGi-14" edge="1">
          <mxGeometry relative="1" as="geometry">
            <mxPoint x="393" y="-422.5" as="sourcePoint" />
          </mxGeometry>
        </mxCell>
        <mxCell id="9vfIiYDkvgnKDdM_YgGi-16" value="Alterar denuncia" style="edgeLabel;html=1;align=center;verticalAlign=middle;resizable=0;points=[];fontStyle=1;labelBackgroundColor=#660066;labelBorderColor=default;fontSize=13;" parent="9vfIiYDkvgnKDdM_YgGi-15" vertex="1" connectable="0">
          <mxGeometry x="-0.2214" y="2" relative="1" as="geometry">
            <mxPoint as="offset" />
          </mxGeometry>
        </mxCell>
        <mxCell id="9vfIiYDkvgnKDdM_YgGi-31" style="edgeStyle=orthogonalEdgeStyle;rounded=0;orthogonalLoop=1;jettySize=auto;html=1;fillColor=#b0e3e6;strokeColor=#0e8088;" parent="1" target="9vfIiYDkvgnKDdM_YgGi-30" edge="1">
          <mxGeometry relative="1" as="geometry">
            <mxPoint x="338" y="-475" as="sourcePoint" />
          </mxGeometry>
        </mxCell>
        <mxCell id="9vfIiYDkvgnKDdM_YgGi-32" value="Excluir denuncia" style="edgeLabel;html=1;align=center;verticalAlign=middle;resizable=0;points=[];fontSize=13;labelBackgroundColor=#000099;labelBorderColor=default;fontStyle=1" parent="9vfIiYDkvgnKDdM_YgGi-31" vertex="1" connectable="0">
          <mxGeometry x="-0.2856" y="1" relative="1" as="geometry">
            <mxPoint as="offset" />
          </mxGeometry>
        </mxCell>
        <mxCell id="9vfIiYDkvgnKDdM_YgGi-50" style="edgeStyle=orthogonalEdgeStyle;rounded=0;orthogonalLoop=1;jettySize=auto;html=1;fillColor=#d80073;strokeColor=#A50040;" parent="1" target="9vfIiYDkvgnKDdM_YgGi-49" edge="1">
          <mxGeometry relative="1" as="geometry">
            <mxPoint x="338" y="-370" as="sourcePoint" />
          </mxGeometry>
        </mxCell>
        <mxCell id="9vfIiYDkvgnKDdM_YgGi-51" value="Ativar modo SOS" style="edgeLabel;html=1;align=center;verticalAlign=middle;resizable=0;points=[];fontColor=#FFFFFF;labelBorderColor=default;fontSize=13;labelBackgroundColor=#FF0080;fontStyle=1" parent="9vfIiYDkvgnKDdM_YgGi-50" vertex="1" connectable="0">
          <mxGeometry x="0.7069" y="-3" relative="1" as="geometry">
            <mxPoint as="offset" />
          </mxGeometry>
        </mxCell>
        <mxCell id="9vfIiYDkvgnKDdM_YgGi-71" style="edgeStyle=orthogonalEdgeStyle;rounded=0;orthogonalLoop=1;jettySize=auto;html=1;fillColor=#e51400;strokeColor=#B20000;" parent="1" target="9vfIiYDkvgnKDdM_YgGi-70" edge="1">
          <mxGeometry relative="1" as="geometry">
            <Array as="points">
              <mxPoint x="338" y="-270" />
            </Array>
            <mxPoint x="338" y="-370" as="sourcePoint" />
          </mxGeometry>
        </mxCell>
        <mxCell id="9vfIiYDkvgnKDdM_YgGi-72" value="Acessar todas denuncias" style="edgeLabel;html=1;align=center;verticalAlign=middle;resizable=0;points=[];textShadow=0;labelBorderColor=none;labelBackgroundColor=#990000;fontStyle=1;fontSize=13;" parent="9vfIiYDkvgnKDdM_YgGi-71" vertex="1" connectable="0">
          <mxGeometry x="-0.0206" y="-2" relative="1" as="geometry">
            <mxPoint as="offset" />
          </mxGeometry>
        </mxCell>
        <mxCell id="9vfIiYDkvgnKDdM_YgGi-19" style="edgeStyle=orthogonalEdgeStyle;rounded=0;orthogonalLoop=1;jettySize=auto;html=1;fillColor=#e1d5e7;strokeColor=#9673a6;" parent="1" source="9vfIiYDkvgnKDdM_YgGi-14" target="9vfIiYDkvgnKDdM_YgGi-18" edge="1">
          <mxGeometry relative="1" as="geometry" />
        </mxCell>
        <mxCell id="9vfIiYDkvgnKDdM_YgGi-14" value="Selecionar a denuncia ou pesquisar pelo protocolo" style="rounded=1;whiteSpace=wrap;html=1;" parent="1" vertex="1">
          <mxGeometry x="563" y="-452.5" width="120" height="60" as="geometry" />
        </mxCell>
        <mxCell id="9vfIiYDkvgnKDdM_YgGi-22" style="edgeStyle=orthogonalEdgeStyle;rounded=0;orthogonalLoop=1;jettySize=auto;html=1;entryX=0;entryY=0.5;entryDx=0;entryDy=0;fillColor=#e1d5e7;strokeColor=#9673a6;" parent="1" source="9vfIiYDkvgnKDdM_YgGi-18" target="9vfIiYDkvgnKDdM_YgGi-20" edge="1">
          <mxGeometry relative="1" as="geometry" />
        </mxCell>
        <mxCell id="9vfIiYDkvgnKDdM_YgGi-24" value="Sim" style="edgeLabel;html=1;align=center;verticalAlign=middle;resizable=0;points=[];" parent="9vfIiYDkvgnKDdM_YgGi-22" vertex="1" connectable="0">
          <mxGeometry x="0.5756" y="-1" relative="1" as="geometry">
            <mxPoint as="offset" />
          </mxGeometry>
        </mxCell>
        <mxCell id="9vfIiYDkvgnKDdM_YgGi-23" style="edgeStyle=orthogonalEdgeStyle;rounded=0;orthogonalLoop=1;jettySize=auto;html=1;fillColor=#e1d5e7;strokeColor=#9673a6;" parent="1" source="9vfIiYDkvgnKDdM_YgGi-18" target="9vfIiYDkvgnKDdM_YgGi-21" edge="1">
          <mxGeometry relative="1" as="geometry" />
        </mxCell>
        <mxCell id="9vfIiYDkvgnKDdM_YgGi-25" value="Não" style="edgeLabel;html=1;align=center;verticalAlign=middle;resizable=0;points=[];" parent="9vfIiYDkvgnKDdM_YgGi-23" vertex="1" connectable="0">
          <mxGeometry x="0.505" y="1" relative="1" as="geometry">
            <mxPoint as="offset" />
          </mxGeometry>
        </mxCell>
        <mxCell id="9vfIiYDkvgnKDdM_YgGi-18" value="Denuncia esta em analise ou aberta?" style="rhombus;whiteSpace=wrap;html=1;" parent="1" vertex="1">
          <mxGeometry x="753" y="-473.5" width="90" height="102" as="geometry" />
        </mxCell>
        <mxCell id="9vfIiYDkvgnKDdM_YgGi-27" style="edgeStyle=orthogonalEdgeStyle;rounded=0;orthogonalLoop=1;jettySize=auto;html=1;fillColor=#e1d5e7;strokeColor=#9673a6;" parent="1" source="9vfIiYDkvgnKDdM_YgGi-20" target="9vfIiYDkvgnKDdM_YgGi-26" edge="1">
          <mxGeometry relative="1" as="geometry" />
        </mxCell>
        <mxCell id="9vfIiYDkvgnKDdM_YgGi-20" value="Informar nos campos oque deseja alterar" style="rounded=1;whiteSpace=wrap;html=1;" parent="1" vertex="1">
          <mxGeometry x="933" y="-540" width="120" height="60" as="geometry" />
        </mxCell>
        <mxCell id="9vfIiYDkvgnKDdM_YgGi-21" value="Mostra uma mensagem que não é permitido alterar&amp;nbsp;" style="rounded=1;whiteSpace=wrap;html=1;" parent="1" vertex="1">
          <mxGeometry x="933" y="-400" width="120" height="60" as="geometry" />
        </mxCell>
        <mxCell id="9vfIiYDkvgnKDdM_YgGi-28" style="edgeStyle=orthogonalEdgeStyle;rounded=0;orthogonalLoop=1;jettySize=auto;html=1;fillColor=#e1d5e7;strokeColor=#9673a6;" parent="1" source="9vfIiYDkvgnKDdM_YgGi-26" target="tlmMbIlWssG65KgdVrQm-13" edge="1">
          <mxGeometry relative="1" as="geometry" />
        </mxCell>
        <mxCell id="9vfIiYDkvgnKDdM_YgGi-26" value="Confirma alteração" style="rounded=1;whiteSpace=wrap;html=1;" parent="1" vertex="1">
          <mxGeometry x="1133" y="-600" width="120" height="60" as="geometry" />
        </mxCell>
        <mxCell id="9vfIiYDkvgnKDdM_YgGi-36" value="" style="edgeStyle=orthogonalEdgeStyle;rounded=0;orthogonalLoop=1;jettySize=auto;html=1;fillColor=#b0e3e6;strokeColor=#0e8088;" parent="1" source="9vfIiYDkvgnKDdM_YgGi-30" target="9vfIiYDkvgnKDdM_YgGi-33" edge="1">
          <mxGeometry relative="1" as="geometry" />
        </mxCell>
        <mxCell id="9vfIiYDkvgnKDdM_YgGi-30" value="Selecionar a denuncia ou pesquisar pelo protocolo" style="rounded=1;whiteSpace=wrap;html=1;" parent="1" vertex="1">
          <mxGeometry x="278" y="-710" width="120" height="60" as="geometry" />
        </mxCell>
        <mxCell id="9vfIiYDkvgnKDdM_YgGi-37" style="edgeStyle=orthogonalEdgeStyle;rounded=0;orthogonalLoop=1;jettySize=auto;html=1;fillColor=#b0e3e6;strokeColor=#0e8088;" parent="1" source="9vfIiYDkvgnKDdM_YgGi-33" target="9vfIiYDkvgnKDdM_YgGi-34" edge="1">
          <mxGeometry relative="1" as="geometry" />
        </mxCell>
        <mxCell id="9vfIiYDkvgnKDdM_YgGi-39" value="Sim" style="edgeLabel;html=1;align=center;verticalAlign=middle;resizable=0;points=[];" parent="9vfIiYDkvgnKDdM_YgGi-37" vertex="1" connectable="0">
          <mxGeometry x="0.5042" y="2" relative="1" as="geometry">
            <mxPoint x="-1" as="offset" />
          </mxGeometry>
        </mxCell>
        <mxCell id="9vfIiYDkvgnKDdM_YgGi-38" style="edgeStyle=orthogonalEdgeStyle;rounded=0;orthogonalLoop=1;jettySize=auto;html=1;fillColor=#b0e3e6;strokeColor=#0e8088;" parent="1" source="9vfIiYDkvgnKDdM_YgGi-33" target="9vfIiYDkvgnKDdM_YgGi-35" edge="1">
          <mxGeometry relative="1" as="geometry" />
        </mxCell>
        <mxCell id="9vfIiYDkvgnKDdM_YgGi-40" value="Não" style="edgeLabel;html=1;align=center;verticalAlign=middle;resizable=0;points=[];" parent="9vfIiYDkvgnKDdM_YgGi-38" vertex="1" connectable="0">
          <mxGeometry x="0.3678" y="-2" relative="1" as="geometry">
            <mxPoint x="-2" y="-1" as="offset" />
          </mxGeometry>
        </mxCell>
        <mxCell id="9vfIiYDkvgnKDdM_YgGi-33" value="Denuncia esta em analise ou aberta?" style="rhombus;whiteSpace=wrap;html=1;" parent="1" vertex="1">
          <mxGeometry x="454" y="-731" width="90" height="102" as="geometry" />
        </mxCell>
        <mxCell id="9vfIiYDkvgnKDdM_YgGi-42" style="edgeStyle=orthogonalEdgeStyle;rounded=0;orthogonalLoop=1;jettySize=auto;html=1;fillColor=#b0e3e6;strokeColor=#0e8088;" parent="1" source="9vfIiYDkvgnKDdM_YgGi-34" target="9vfIiYDkvgnKDdM_YgGi-41" edge="1">
          <mxGeometry relative="1" as="geometry" />
        </mxCell>
        <mxCell id="9vfIiYDkvgnKDdM_YgGi-34" value="Excluir denuncia" style="rounded=1;whiteSpace=wrap;html=1;" parent="1" vertex="1">
          <mxGeometry x="693" y="-770" width="120" height="60" as="geometry" />
        </mxCell>
        <mxCell id="9vfIiYDkvgnKDdM_YgGi-35" value="Mostra uma mensagem que não é permitido alterar&amp;nbsp;" style="rounded=1;whiteSpace=wrap;html=1;" parent="1" vertex="1">
          <mxGeometry x="693" y="-664" width="120" height="60" as="geometry" />
        </mxCell>
        <mxCell id="9vfIiYDkvgnKDdM_YgGi-43" style="edgeStyle=orthogonalEdgeStyle;rounded=0;orthogonalLoop=1;jettySize=auto;html=1;fillColor=#b0e3e6;strokeColor=#0e8088;" parent="1" source="9vfIiYDkvgnKDdM_YgGi-41" target="tlmMbIlWssG65KgdVrQm-13" edge="1">
          <mxGeometry relative="1" as="geometry">
            <Array as="points">
              <mxPoint x="853" y="-810" />
              <mxPoint x="163" y="-810" />
            </Array>
          </mxGeometry>
        </mxCell>
        <mxCell id="9vfIiYDkvgnKDdM_YgGi-41" value="Confirma exclusão" style="rounded=1;whiteSpace=wrap;html=1;" parent="1" vertex="1">
          <mxGeometry x="903" y="-830" width="120" height="60" as="geometry" />
        </mxCell>
        <mxCell id="9vfIiYDkvgnKDdM_YgGi-53" style="edgeStyle=orthogonalEdgeStyle;rounded=0;orthogonalLoop=1;jettySize=auto;html=1;fillColor=#d80073;strokeColor=#A50040;" parent="1" source="9vfIiYDkvgnKDdM_YgGi-49" target="9vfIiYDkvgnKDdM_YgGi-52" edge="1">
          <mxGeometry relative="1" as="geometry" />
        </mxCell>
        <mxCell id="9vfIiYDkvgnKDdM_YgGi-49" value="Acessar a aba modo &quot;SOS&quot;" style="rounded=1;whiteSpace=wrap;html=1;" parent="1" vertex="1">
          <mxGeometry x="278" y="100" width="120" height="60" as="geometry" />
        </mxCell>
        <mxCell id="9vfIiYDkvgnKDdM_YgGi-58" style="edgeStyle=orthogonalEdgeStyle;rounded=0;orthogonalLoop=1;jettySize=auto;html=1;fillColor=#d80073;strokeColor=#A50040;" parent="1" source="9vfIiYDkvgnKDdM_YgGi-52" target="9vfIiYDkvgnKDdM_YgGi-54" edge="1">
          <mxGeometry relative="1" as="geometry" />
        </mxCell>
        <mxCell id="9vfIiYDkvgnKDdM_YgGi-52" value="Permitir que o sistema colete sua localização em tempo real" style="rounded=1;whiteSpace=wrap;html=1;" parent="1" vertex="1">
          <mxGeometry x="463" y="100" width="120" height="60" as="geometry" />
        </mxCell>
        <mxCell id="9vfIiYDkvgnKDdM_YgGi-60" style="edgeStyle=orthogonalEdgeStyle;rounded=0;orthogonalLoop=1;jettySize=auto;html=1;fillColor=#d80073;strokeColor=#A50040;" parent="1" source="9vfIiYDkvgnKDdM_YgGi-54" target="9vfIiYDkvgnKDdM_YgGi-59" edge="1">
          <mxGeometry relative="1" as="geometry" />
        </mxCell>
        <mxCell id="9vfIiYDkvgnKDdM_YgGi-54" value="Falar resumidamente o problema em que se encontra" style="rounded=1;whiteSpace=wrap;html=1;" parent="1" vertex="1">
          <mxGeometry x="633" y="100" width="100" height="60" as="geometry" />
        </mxCell>
        <mxCell id="9vfIiYDkvgnKDdM_YgGi-59" value="Apertar &quot;iniciar&quot;" style="rounded=1;whiteSpace=wrap;html=1;" parent="1" vertex="1">
          <mxGeometry x="783" y="100" width="120" height="60" as="geometry" />
        </mxCell>
        <mxCell id="9vfIiYDkvgnKDdM_YgGi-66" style="edgeStyle=orthogonalEdgeStyle;rounded=0;orthogonalLoop=1;jettySize=auto;html=1;" parent="1" source="9vfIiYDkvgnKDdM_YgGi-63" target="9vfIiYDkvgnKDdM_YgGi-65" edge="1">
          <mxGeometry relative="1" as="geometry" />
        </mxCell>
        <mxCell id="9vfIiYDkvgnKDdM_YgGi-63" value="Realizar logout" style="rounded=1;whiteSpace=wrap;html=1;" parent="1" vertex="1">
          <mxGeometry x="13" y="-580" width="120" height="60" as="geometry" />
        </mxCell>
        <mxCell id="9vfIiYDkvgnKDdM_YgGi-65" value="Fim" style="ellipse;whiteSpace=wrap;html=1;aspect=fixed;" parent="1" vertex="1">
          <mxGeometry x="33" y="-744" width="80" height="80" as="geometry" />
        </mxCell>
        <mxCell id="9vfIiYDkvgnKDdM_YgGi-74" style="edgeStyle=orthogonalEdgeStyle;rounded=0;orthogonalLoop=1;jettySize=auto;html=1;fillColor=#e51400;strokeColor=#B20000;" parent="1" source="9vfIiYDkvgnKDdM_YgGi-70" target="9vfIiYDkvgnKDdM_YgGi-73" edge="1">
          <mxGeometry relative="1" as="geometry" />
        </mxCell>
        <mxCell id="9vfIiYDkvgnKDdM_YgGi-70" value="Selecionar todas denuncias" style="rounded=1;whiteSpace=wrap;html=1;" parent="1" vertex="1">
          <mxGeometry x="439" y="-300" width="120" height="60" as="geometry" />
        </mxCell>
        <mxCell id="9vfIiYDkvgnKDdM_YgGi-79" style="edgeStyle=orthogonalEdgeStyle;rounded=0;orthogonalLoop=1;jettySize=auto;html=1;entryX=0.5;entryY=1;entryDx=0;entryDy=0;fillColor=#e51400;strokeColor=#B20000;" parent="1" source="9vfIiYDkvgnKDdM_YgGi-73" target="tlmMbIlWssG65KgdVrQm-13" edge="1">
          <mxGeometry relative="1" as="geometry">
            <Array as="points">
              <mxPoint x="683" y="-200" />
              <mxPoint x="163" y="-200" />
            </Array>
          </mxGeometry>
        </mxCell>
        <mxCell id="9vfIiYDkvgnKDdM_YgGi-73" value="Visualizar todas denuncias com seus status" style="rounded=0;whiteSpace=wrap;html=1;" parent="1" vertex="1">
          <mxGeometry x="623" y="-300" width="120" height="60" as="geometry" />
        </mxCell>
        <mxCell id="80d8QRH2UIoK1ZbqikjG-1" style="edgeStyle=orthogonalEdgeStyle;rounded=0;orthogonalLoop=1;jettySize=auto;html=1;exitX=0;exitY=0.5;exitDx=0;exitDy=0;" parent="1" source="tlmMbIlWssG65KgdVrQm-44" target="tlmMbIlWssG65KgdVrQm-44" edge="1">
          <mxGeometry relative="1" as="geometry" />
        </mxCell>
        <mxCell id="y9BXW_LzjhlgLxC4nve7-1" value="Escolha opção" style="whiteSpace=wrap;html=1;aspect=fixed;" parent="1" vertex="1">
          <mxGeometry x="288" y="-480" width="100" height="100" as="geometry" />
        </mxCell>
        <mxCell id="y9BXW_LzjhlgLxC4nve7-49" style="edgeStyle=orthogonalEdgeStyle;rounded=0;orthogonalLoop=1;jettySize=auto;html=1;" parent="1" source="y9BXW_LzjhlgLxC4nve7-2" target="y9BXW_LzjhlgLxC4nve7-3" edge="1">
          <mxGeometry relative="1" as="geometry" />
        </mxCell>
        <mxCell id="y9BXW_LzjhlgLxC4nve7-2" value="inicio" style="ellipse;whiteSpace=wrap;html=1;aspect=fixed;" parent="1" vertex="1">
          <mxGeometry x="-820" y="928.5" width="63" height="63" as="geometry" />
        </mxCell>
        <mxCell id="y9BXW_LzjhlgLxC4nve7-50" style="edgeStyle=orthogonalEdgeStyle;rounded=0;orthogonalLoop=1;jettySize=auto;html=1;" parent="1" source="y9BXW_LzjhlgLxC4nve7-3" target="y9BXW_LzjhlgLxC4nve7-48" edge="1">
          <mxGeometry relative="1" as="geometry" />
        </mxCell>
        <mxCell id="y9BXW_LzjhlgLxC4nve7-3" value="Acessar pagina de login" style="rounded=1;whiteSpace=wrap;html=1;" parent="1" vertex="1">
          <mxGeometry x="-690" y="930" width="120" height="60" as="geometry" />
        </mxCell>
        <mxCell id="y9BXW_LzjhlgLxC4nve7-7" style="edgeStyle=orthogonalEdgeStyle;rounded=0;orthogonalLoop=1;jettySize=auto;html=1;" parent="1" source="y9BXW_LzjhlgLxC4nve7-4" target="y9BXW_LzjhlgLxC4nve7-5" edge="1">
          <mxGeometry relative="1" as="geometry">
            <Array as="points">
              <mxPoint x="-70" y="1050" />
            </Array>
          </mxGeometry>
        </mxCell>
        <mxCell id="y9BXW_LzjhlgLxC4nve7-8" value="Não" style="edgeLabel;html=1;align=center;verticalAlign=middle;resizable=0;points=[];" parent="y9BXW_LzjhlgLxC4nve7-7" vertex="1" connectable="0">
          <mxGeometry x="-0.1058" relative="1" as="geometry">
            <mxPoint as="offset" />
          </mxGeometry>
        </mxCell>
        <mxCell id="y9BXW_LzjhlgLxC4nve7-10" style="edgeStyle=orthogonalEdgeStyle;rounded=0;orthogonalLoop=1;jettySize=auto;html=1;" parent="1" source="y9BXW_LzjhlgLxC4nve7-4" target="y9BXW_LzjhlgLxC4nve7-6" edge="1">
          <mxGeometry relative="1" as="geometry">
            <Array as="points">
              <mxPoint x="-70" y="840" />
            </Array>
          </mxGeometry>
        </mxCell>
        <mxCell id="y9BXW_LzjhlgLxC4nve7-11" value="Sim" style="edgeLabel;html=1;align=center;verticalAlign=middle;resizable=0;points=[];" parent="y9BXW_LzjhlgLxC4nve7-10" vertex="1" connectable="0">
          <mxGeometry x="-0.0381" y="1" relative="1" as="geometry">
            <mxPoint as="offset" />
          </mxGeometry>
        </mxCell>
        <mxCell id="y9BXW_LzjhlgLxC4nve7-4" value="Possui login ativo" style="rhombus;whiteSpace=wrap;html=1;" parent="1" vertex="1">
          <mxGeometry x="-110" y="920" width="80" height="80" as="geometry" />
        </mxCell>
        <mxCell id="y9BXW_LzjhlgLxC4nve7-9" style="edgeStyle=orthogonalEdgeStyle;rounded=0;orthogonalLoop=1;jettySize=auto;html=1;" parent="1" source="y9BXW_LzjhlgLxC4nve7-5" target="y9BXW_LzjhlgLxC4nve7-3" edge="1">
          <mxGeometry relative="1" as="geometry" />
        </mxCell>
        <mxCell id="y9BXW_LzjhlgLxC4nve7-5" value="Procurar o suporte da empresa responsavel do sistema" style="rounded=1;whiteSpace=wrap;html=1;" parent="1" vertex="1">
          <mxGeometry x="60" y="1040" width="120" height="60" as="geometry" />
        </mxCell>
        <mxCell id="y9BXW_LzjhlgLxC4nve7-16" style="edgeStyle=orthogonalEdgeStyle;rounded=0;orthogonalLoop=1;jettySize=auto;html=1;" parent="1" source="y9BXW_LzjhlgLxC4nve7-6" target="y9BXW_LzjhlgLxC4nve7-13" edge="1">
          <mxGeometry relative="1" as="geometry" />
        </mxCell>
        <mxCell id="y9BXW_LzjhlgLxC4nve7-6" value="Realizar login&lt;span style=&quot;white-space: pre;&quot;&gt;&#x9;&lt;/span&gt;" style="rounded=1;whiteSpace=wrap;html=1;" parent="1" vertex="1">
          <mxGeometry x="80" y="810" width="120" height="60" as="geometry" />
        </mxCell>
        <mxCell id="y9BXW_LzjhlgLxC4nve7-15" value="" style="edgeStyle=orthogonalEdgeStyle;rounded=0;orthogonalLoop=1;jettySize=auto;html=1;" parent="1" source="y9BXW_LzjhlgLxC4nve7-13" target="y9BXW_LzjhlgLxC4nve7-14" edge="1">
          <mxGeometry relative="1" as="geometry" />
        </mxCell>
        <mxCell id="uA8kmb6cEqljGcTFAvhg-3" style="edgeStyle=orthogonalEdgeStyle;rounded=0;orthogonalLoop=1;jettySize=auto;html=1;" edge="1" parent="1" source="y9BXW_LzjhlgLxC4nve7-13" target="uA8kmb6cEqljGcTFAvhg-1">
          <mxGeometry relative="1" as="geometry" />
        </mxCell>
        <mxCell id="y9BXW_LzjhlgLxC4nve7-13" value="Acessar tela administrador" style="rounded=1;whiteSpace=wrap;html=1;" parent="1" vertex="1">
          <mxGeometry x="320" y="810" width="120" height="60" as="geometry" />
        </mxCell>
        <mxCell id="y9BXW_LzjhlgLxC4nve7-20" style="edgeStyle=orthogonalEdgeStyle;rounded=0;orthogonalLoop=1;jettySize=auto;html=1;" parent="1" source="y9BXW_LzjhlgLxC4nve7-14" target="y9BXW_LzjhlgLxC4nve7-17" edge="1">
          <mxGeometry relative="1" as="geometry" />
        </mxCell>
        <mxCell id="y9BXW_LzjhlgLxC4nve7-28" style="edgeStyle=orthogonalEdgeStyle;rounded=0;orthogonalLoop=1;jettySize=auto;html=1;" parent="1" source="y9BXW_LzjhlgLxC4nve7-14" target="y9BXW_LzjhlgLxC4nve7-26" edge="1">
          <mxGeometry relative="1" as="geometry" />
        </mxCell>
        <mxCell id="y9BXW_LzjhlgLxC4nve7-14" value="Escolha opção" style="whiteSpace=wrap;html=1;aspect=fixed;" parent="1" vertex="1">
          <mxGeometry x="550" y="800" width="80" height="80" as="geometry" />
        </mxCell>
        <mxCell id="y9BXW_LzjhlgLxC4nve7-22" style="edgeStyle=orthogonalEdgeStyle;rounded=0;orthogonalLoop=1;jettySize=auto;html=1;" parent="1" source="y9BXW_LzjhlgLxC4nve7-17" target="y9BXW_LzjhlgLxC4nve7-18" edge="1">
          <mxGeometry relative="1" as="geometry" />
        </mxCell>
        <mxCell id="y9BXW_LzjhlgLxC4nve7-17" value="Selecionar denuncia ou protocolo" style="rounded=1;whiteSpace=wrap;html=1;" parent="1" vertex="1">
          <mxGeometry x="530" y="600" width="120" height="60" as="geometry" />
        </mxCell>
        <mxCell id="y9BXW_LzjhlgLxC4nve7-23" value="" style="edgeStyle=orthogonalEdgeStyle;rounded=0;orthogonalLoop=1;jettySize=auto;html=1;" parent="1" source="y9BXW_LzjhlgLxC4nve7-18" target="y9BXW_LzjhlgLxC4nve7-19" edge="1">
          <mxGeometry relative="1" as="geometry" />
        </mxCell>
        <mxCell id="y9BXW_LzjhlgLxC4nve7-18" value="Selecionar a opção de aberta, analise ou concluida" style="rounded=0;whiteSpace=wrap;html=1;" parent="1" vertex="1">
          <mxGeometry x="770" y="600" width="120" height="60" as="geometry" />
        </mxCell>
        <mxCell id="y9BXW_LzjhlgLxC4nve7-24" style="edgeStyle=orthogonalEdgeStyle;rounded=0;orthogonalLoop=1;jettySize=auto;html=1;" parent="1" source="y9BXW_LzjhlgLxC4nve7-19" target="y9BXW_LzjhlgLxC4nve7-14" edge="1">
          <mxGeometry relative="1" as="geometry" />
        </mxCell>
        <mxCell id="y9BXW_LzjhlgLxC4nve7-25" value="&lt;h2&gt;&lt;span style=&quot;background-color: rgb(102, 0, 0);&quot;&gt;&lt;b style=&quot;&quot;&gt;Alterar denuncia&lt;/b&gt;&lt;/span&gt;&lt;/h2&gt;" style="edgeLabel;html=1;align=center;verticalAlign=middle;resizable=0;points=[];" parent="y9BXW_LzjhlgLxC4nve7-24" vertex="1" connectable="0">
          <mxGeometry x="0.7807" relative="1" as="geometry">
            <mxPoint x="1" as="offset" />
          </mxGeometry>
        </mxCell>
        <mxCell id="y9BXW_LzjhlgLxC4nve7-19" value="apertar em concluir" style="rounded=1;whiteSpace=wrap;html=1;" parent="1" vertex="1">
          <mxGeometry x="990" y="600" width="120" height="60" as="geometry" />
        </mxCell>
        <mxCell id="y9BXW_LzjhlgLxC4nve7-30" style="edgeStyle=orthogonalEdgeStyle;rounded=0;orthogonalLoop=1;jettySize=auto;html=1;" parent="1" source="y9BXW_LzjhlgLxC4nve7-26" target="y9BXW_LzjhlgLxC4nve7-27" edge="1">
          <mxGeometry relative="1" as="geometry" />
        </mxCell>
        <mxCell id="y9BXW_LzjhlgLxC4nve7-26" value="Selecionar todas denuncias" style="rounded=1;whiteSpace=wrap;html=1;" parent="1" vertex="1">
          <mxGeometry x="934" y="810" width="120" height="60" as="geometry" />
        </mxCell>
        <mxCell id="y9BXW_LzjhlgLxC4nve7-31" style="edgeStyle=orthogonalEdgeStyle;rounded=0;orthogonalLoop=1;jettySize=auto;html=1;" parent="1" source="y9BXW_LzjhlgLxC4nve7-27" target="y9BXW_LzjhlgLxC4nve7-14" edge="1">
          <mxGeometry relative="1" as="geometry" />
        </mxCell>
        <mxCell id="y9BXW_LzjhlgLxC4nve7-32" value="&lt;h2&gt;&lt;span style=&quot;background-color: rgb(102, 0, 102);&quot;&gt;&lt;font face=&quot;Lucida Console&quot;&gt;Visualizar denuncias&lt;/font&gt;&lt;/span&gt;&lt;/h2&gt;" style="edgeLabel;html=1;align=center;verticalAlign=middle;resizable=0;points=[];" parent="y9BXW_LzjhlgLxC4nve7-31" vertex="1" connectable="0">
          <mxGeometry x="0.6776" relative="1" as="geometry">
            <mxPoint x="70" as="offset" />
          </mxGeometry>
        </mxCell>
        <mxCell id="y9BXW_LzjhlgLxC4nve7-27" value="Filtar por denuncias&amp;nbsp;" style="rounded=1;whiteSpace=wrap;html=1;" parent="1" vertex="1">
          <mxGeometry x="1130" y="810" width="120" height="60" as="geometry" />
        </mxCell>
        <mxCell id="y9BXW_LzjhlgLxC4nve7-51" style="edgeStyle=orthogonalEdgeStyle;rounded=0;orthogonalLoop=1;jettySize=auto;html=1;" parent="1" source="y9BXW_LzjhlgLxC4nve7-48" target="y9BXW_LzjhlgLxC4nve7-4" edge="1">
          <mxGeometry relative="1" as="geometry" />
        </mxCell>
        <mxCell id="y9BXW_LzjhlgLxC4nve7-48" value="Digite usuario e senha" style="rounded=1;whiteSpace=wrap;html=1;" parent="1" vertex="1">
          <mxGeometry x="-420" y="930" width="120" height="60" as="geometry" />
        </mxCell>
        <mxCell id="uA8kmb6cEqljGcTFAvhg-4" style="edgeStyle=orthogonalEdgeStyle;rounded=0;orthogonalLoop=1;jettySize=auto;html=1;" edge="1" parent="1" source="uA8kmb6cEqljGcTFAvhg-1" target="uA8kmb6cEqljGcTFAvhg-2">
          <mxGeometry relative="1" as="geometry" />
        </mxCell>
        <mxCell id="uA8kmb6cEqljGcTFAvhg-1" value="Realizar logout" style="rounded=1;whiteSpace=wrap;html=1;" vertex="1" parent="1">
          <mxGeometry x="320" y="690" width="120" height="60" as="geometry" />
        </mxCell>
        <mxCell id="uA8kmb6cEqljGcTFAvhg-2" value="Fim" style="ellipse;whiteSpace=wrap;html=1;aspect=fixed;" vertex="1" parent="1">
          <mxGeometry x="340" y="560" width="80" height="80" as="geometry" />
        </mxCell>
      </root>
    </mxGraphModel>
  </diagram>
</mxfile>
